<?xml version="1.0" encoding="utf-8"?>
<!-- Generator: Adobe Illustrator 19.2.1, SVG Export Plug-In . SVG Version: 6.00 Build 0)  -->
<svg version="1.1" id="Layer_1" xmlns="http://www.w3.org/2000/svg" xmlns:xlink="http://www.w3.org/1999/xlink" x="0px" y="0px"
	 viewBox="0 0 866 200" style="enable-background:new 0 0 866 200;" xml:space="preserve">
<style type="text/css">
	.st0{fill:#FDCD05;}
</style>
<g>
	<path class="st0" d="M167.2,85.2c0,1.2-0.7,2.5-2.1,4l-30,29.2l7.1,41.3c0.1,0.4,0.1,0.9,0.1,1.7c0,1.2-0.3,2.1-0.9,2.9
		c-0.6,0.8-1.4,1.2-2.5,1.2c-1,0-2.1-0.3-3.3-1l-37-19.5l-37,19.5c-1.2,0.7-2.3,1-3.3,1c-1.2,0-2-0.4-2.6-1.2
		c-0.6-0.8-0.9-1.8-0.9-2.9c0-0.3,0.1-0.9,0.2-1.7l7.1-41.3l-30-29.2c-1.4-1.5-2.1-2.8-2.1-4c0-2,1.5-3.3,4.6-3.8l41.4-6l18.5-37.6
		c1-2.3,2.4-3.4,4-3.4s3,1.1,4,3.4l18.6,37.5l41.4,6C165.6,81.9,167.2,83.1,167.2,85.2z"/>
</g>
<g>
	<path class="st0" d="M334.4,85.2c0,1.2-0.7,2.5-2.1,4l-30,29.2l7.1,41.3c0.1,0.4,0.1,0.9,0.1,1.7c0,1.2-0.3,2.1-0.9,2.9
		c-0.6,0.8-1.4,1.2-2.5,1.2c-1,0-2.1-0.3-3.3-1l-37-19.5l-37,19.5c-1.2,0.7-2.3,1-3.3,1c-1.2,0-2-0.4-2.6-1.2s-0.9-1.8-0.9-2.9
		c0-0.3,0.1-0.9,0.2-1.7l7.1-41.3l-30-29.2c-1.4-1.5-2.1-2.8-2.1-4c0-2,1.5-3.3,4.6-3.8l41.4-6l18.5-37.6c1-2.3,2.4-3.4,4-3.4
		s3,1.1,4,3.4l18.6,37.5l41.4,6C332.8,81.9,334.4,83.1,334.4,85.2z"/>
</g>
<g>
	<path class="st0" d="M501.6,85.2c0,1.2-0.7,2.5-2.1,4l-30,29.2l7.1,41.3c0.1,0.4,0.1,0.9,0.1,1.7c0,1.2-0.3,2.1-0.9,2.9
		c-0.6,0.8-1.4,1.2-2.5,1.2c-1,0-2.1-0.3-3.3-1l-37-19.5l-37,19.5c-1.2,0.7-2.3,1-3.3,1c-1.2,0-2-0.4-2.6-1.2s-0.9-1.8-0.9-2.9
		c0-0.3,0.1-0.9,0.2-1.7l7.1-41.3l-30-29.2c-1.4-1.5-2.1-2.8-2.1-4c0-2,1.5-3.3,4.6-3.8l41.4-6l18.5-37.6c1-2.3,2.4-3.4,4-3.4
		s3,1.1,4,3.4l18.6,37.5l41.4,6C500,81.9,501.6,83.1,501.6,85.2z"/>
</g>
<g>
	<path class="st0" d="M668.8,85.2c0,1.2-0.7,2.5-2.1,4l-30,29.2l7.1,41.3c0.1,0.4,0.1,0.9,0.1,1.7c0,1.2-0.3,2.1-0.9,2.9
		c-0.6,0.8-1.4,1.2-2.5,1.2c-1,0-2.1-0.3-3.3-1l-37-19.5l-37,19.5c-1.2,0.7-2.3,1-3.3,1c-1.2,0-2-0.4-2.6-1.2
		c-0.6-0.8-0.9-1.8-0.9-2.9c0-0.3,0.1-0.9,0.2-1.7l7.1-41.3l-30-29.2c-1.4-1.5-2.1-2.8-2.1-4c0-2,1.5-3.3,4.6-3.8l41.4-6l18.5-37.6
		c1-2.3,2.4-3.4,4-3.4s3,1.1,4,3.4l18.6,37.5l41.4,6C667.2,81.9,668.8,83.1,668.8,85.2z"/>
</g>
<g>
	<path class="st0" d="M833.9,89.2l-30,29.2l7.1,41.3c0.3,1.8,0.1,3.2-0.5,4.2s-1.5,1.5-2.8,1.5c-0.9,0-2-0.3-3.3-1l-37-19.5
		l-37,19.5c-1.3,0.7-2.4,1-3.3,1c-1.3,0-2.2-0.5-2.8-1.5s-0.8-2.4-0.5-4.2l7.1-41.3l-30-29.2c-1.8-1.8-2.4-3.4-1.9-4.9
		s2-2.5,4.5-2.8l41.2-6.1l18.6-37.5c1.1-2.3,2.4-3.4,4-3.4c1.5,0,2.9,1.1,4,3.4L790,75.4l41.4,6c2.5,0.4,4,1.3,4.5,2.8
		C836.3,85.8,835.7,87.5,833.9,89.2z M796.6,110.8l21.2-20.6l-29.4-4.3l-5.4-0.8l-2.5-5l-13.1-26.6v79.5l4.9,2.6l26.2,13.9l-5-29.3
		l-1-5.4L796.6,110.8z"/>
</g>
</svg>
